<?xml version="1.0" encoding="iso-8859-1"?>
<!-- Generator: Adobe Illustrator 19.0.0, SVG Export Plug-In . SVG Version: 6.00 Build 0)  -->
<svg version="1.1" id="Capa_1" xmlns="http://www.w3.org/2000/svg" xmlns:xlink="http://www.w3.org/1999/xlink" x="0px" y="0px"
	 viewBox="0 0 512.005 512.005" style="enable-background:new 0 0 512.005 512.005;" xml:space="preserve">
<g>
	<g>
		<path d="M501.333,384.005h-96V121.755L508.885,18.203c4.16-4.16,4.16-10.923,0-15.083c-4.16-4.16-10.923-4.16-15.083,0
			L390.251,106.672H128v-96c0-5.888-4.779-10.667-10.667-10.667s-10.667,4.779-10.667,10.667v96h-96
			C4.779,106.672,0,111.451,0,117.339s4.779,10.667,10.667,10.667h96v266.667c0,1.387,0.277,2.773,0.811,4.075
			c1.088,2.603,3.157,4.693,5.781,5.781c1.301,0.533,2.688,0.811,4.075,0.811H384v96c0,5.888,4.779,10.667,10.667,10.667
			s10.667-4.779,10.667-10.667v-96h96c5.888,0,10.667-4.779,10.667-10.667S507.221,384.005,501.333,384.005z M128,128.005h240.917
			L128,368.923V128.005z M384,384.005H143.083L384,143.088V384.005z"/>
	</g>
</g>
<g>
</g>
<g>
</g>
<g>
</g>
<g>
</g>
<g>
</g>
<g>
</g>
<g>
</g>
<g>
</g>
<g>
</g>
<g>
</g>
<g>
</g>
<g>
</g>
<g>
</g>
<g>
</g>
<g>
</g>
</svg>
