<?xml version="1.0" encoding="iso-8859-1"?>
<!-- Generator: Adobe Illustrator 19.0.0, SVG Export Plug-In . SVG Version: 6.00 Build 0)  -->
<svg version="1.1" id="Capa_1" xmlns="http://www.w3.org/2000/svg" xmlns:xlink="http://www.w3.org/1999/xlink" x="0px" y="0px"
	 viewBox="0 0 512 512" style="enable-background:new 0 0 512 512;" xml:space="preserve">
<g>
	<g>
		<path d="M482,60.5L482,60.5C482,122.419,368.243,163.5,293,163.5H65c-35.841,0-65,29.159-65,65v38c0,35.841,29.159,65,65,65
			h47.188l-18.851,56.553c-4.959,14.878-2.544,30.707,6.625,43.429c9.17,12.722,23.423,20.019,39.105,20.019
			c20.781,0,39.158-13.246,45.73-32.961L213.81,331.5H293c75.243,0,189,41.081,189,103h30v-374H482z M82,301.5H65
			c-19.299,0-35-15.701-35-35v-38c0-19.299,15.701-35,35-35h17V301.5z M156.338,409.052c-2.481,7.445-9.422,12.447-17.27,12.447
			c-5.923,0-11.306-2.756-14.768-7.56c-3.463-4.805-4.375-10.782-2.502-16.401l22.013-66.039h38.377L156.338,409.052z M278,301.5
			H112v-108h166V301.5z M482,368.635c-13.271-13.184-30.699-25.014-51.914-35.23c-36.284-17.474-81.76-29.063-122.086-31.443
			V193.037c40.326-2.38,85.802-13.969,122.086-31.443c21.215-10.217,38.643-22.047,51.914-35.23V368.635z"/>
	</g>
</g>
<g>
</g>
<g>
</g>
<g>
</g>
<g>
</g>
<g>
</g>
<g>
</g>
<g>
</g>
<g>
</g>
<g>
</g>
<g>
</g>
<g>
</g>
<g>
</g>
<g>
</g>
<g>
</g>
<g>
</g>
</svg>
